<svg id="Shared_Goals_Illustration" data-name="Shared Goals Illustration" xmlns="http://www.w3.org/2000/svg" width="640.418" height="394.697" viewBox="0 0 640.418 394.697">
  <defs>
    <style>
      .i1-1 {
        fill: #343434;
      }

      .i1-2 {
        fill: #a0616a;
      }

      .i1-3 {
        fill: #a3a3a3;
      }

      .i1-4 {
        fill: #b1b1b1;
      }

      .i1-5 {
        fill: #464646;
      }

      .i1-6 {
        fill: #f2f2f2;
      }

      .i1-7 {
        fill: #e3e3e3;
      }

      .i1-8 {
        fill: #41404b;
      }

      .i1-9 {
        fill: #e6e6e6;
      }

      .i1-10 {
        fill: #fff;
      }

      .i1-11 {
        fill: #69c19c;
      }

      .i1-12 {
        fill: #ccc;
      }

      .i1-13 {
        fill: #1d1d1d;
      }

      .i1-14 {
        fill: #403736;
      }

      .i1-15 {
        fill: #483939;
      }

      .i1-16 {
        fill: #1c1c1c;
      }

      .i1-17 {
        fill: #533f3b;
      }

      .i1-18 {
        fill: #3f3d56;
      }

      .i1-19 {
        fill: #78e2b5;
      }

      .i1-20 {
        fill: #e0e0e0;
      }
    </style>
  </defs>
  <path id="Path_5" data-name="Path 5" class="i1-1" d="M640.123,536.262H0v-16.09H640.418Z" transform="translate(0 -141.565)"/>
  <path id="Path_6" data-name="Path 6" class="i1-2" d="M890.48,360.909l-16.2,32.068L825.848,415c-5.172,8.741-21.608,9.41-22.8,3.758C801.7,412.412,823,402.205,823,402.205l40.511-27.4,3.545-23.589Z" transform="translate(-331.526 -230.213)"/>
  <path id="Path_7" data-name="Path 7" class="i1-2" d="M742.064,464.215l2.987,23.9-17.326,1.2-1.792-25.094Z" transform="translate(-185.021 -118.316)"/>
  <path id="Path_8" data-name="Path 8" class="i1-3" d="M899.2,676.408a46.928,46.928,0,0,0,4.275-5.229c2.483-3.436,4.686,14.19,4.686,14.19s2.39,7.169,1.792,10.754-14.339,3.585-16.729,2.987-14.339,0-14.339,0H860.959c-15.534-7.169,0-11.949,0-11.949,4.78-.6,20.911-15.534,20.911-15.534l3.585-6.572c2.39-.6,4.78,8.364,4.78,8.364Z" transform="translate(-344.543 -310.195)"/>
  <path id="Path_9" data-name="Path 9" class="i1-2" d="M802.2,464.616l2.988,23.9-17.326,1.2-1.793-25.094Z" transform="translate(-200.348 -118.418)"/>
  <path id="Path_10" data-name="Path 10" class="i1-4" d="M959.333,676.809a46.933,46.933,0,0,0,4.275-5.228c2.483-3.436,4.686,14.19,4.686,14.19s2.39,6.572,1.792,10.157-14.339,3.585-16.729,2.987-14.339.6-14.339.6H921.1c-15.534-7.169,0-11.949,0-11.949,4.78-.6,20.911-15.534,20.911-15.534l3.585-6.572c2.39-.6,4.78,8.364,4.78,8.364Z" transform="translate(-359.87 -310.298)"/>
  <path id="Path_11" data-name="Path 11" class="i1-5" d="M928.427,446.116c2.39,2.987,1.195,13.144,1.195,13.144s4.182,32.86,2.39,35.848,1.195,5.377,2.987,9.559,3.585,14.339,3.585,14.339c10.157,8.364,9.559,46.6,9.559,46.6l3.585,34.055c-1.195,3.585-17.924,4.182-20.314,3.585s-9.559-54.369-9.559-54.369l-16.131-30.47s1.195,81.254,1.195,84.839-16.131,1.792-19.716,1.792-3.585-59.746-3.585-59.746l-3.585-15.534-19.119-71.1V450.3l2.987-4.182S926.038,443.129,928.427,446.116Z" transform="translate(-346.291 -254.062)"/>
  <circle id="Ellipse_5" data-name="Ellipse 5" class="i1-2" cx="18.521" cy="18.521" r="18.521" transform="translate(537.327 19.388)"/>
  <path id="Path_12" data-name="Path 12" class="i1-2" d="M901.768,251.326c3.754,8.36,1.531,20.037-5.975,32.86l30.47-14.339-4.78-4.182,1.195-11.949Z" transform="translate(-355.181 -204.754)"/>
  <path id="Path_13" data-name="Path 13" class="i1-6" d="M892.981,275.35c-3.99,2.372-6.377,6.731-7.747,11.166a105.818,105.818,0,0,0-4.547,25.281l-1.447,25.688L861.316,405.6c15.534,13.144,24.5,10.157,45.407-.6s23.3,3.585,23.3,3.585,1.792-.6,0-2.39,0,0,1.792-1.792,0,0-.6-1.792,0-.6.6-1.195-2.39-5.975-2.39-5.975l4.78-44.809L940.18,287.3c-7.17-8.962-27.483-16.729-27.483-16.729l-18.521,13.144c-5.975,2.39-1.195-7.17-1.195-7.17Z" transform="translate(-346.394 -209.658)"/>
  <path id="Path_14" data-name="Path 14" class="i1-2" d="M966.767,343.937l2.39,35.848L938.686,423.4c0,10.157-5.377,12.547-5.377,12.547a78.993,78.993,0,0,1-5.377-10.157c-2.987-6.572,1.792-11.949,1.792-11.949l20.911-44.212-8.962-22.106Z" transform="translate(-363.122 -228.358)"/>
  <path id="Path_15" data-name="Path 15" class="i1-7" d="M959.288,293c10.157,3.585,11.949,42.419,11.949,42.419-11.949-6.572-26.288,4.182-26.288,4.182s-2.987-10.157-6.572-23.3a22.833,22.833,0,0,1,4.78-21.508S949.131,289.416,959.288,293Z" transform="translate(-365.8 -215.061)"/>
  <path id="Path_16" data-name="Path 16" class="i1-8" d="M926.818,236.57c-2.358-1.886-5.574,1.542-5.574,1.542l-1.886-16.976s-11.789,1.415-19.334-.472S891.3,227.5,891.3,227.5a60.562,60.562,0,0,1-.236-10.61c.472-4.244,6.6-8.488,17.448-11.318s16.5,9.431,16.5,9.431C932.561,218.778,929.176,238.456,926.818,236.57Z" transform="translate(-353.942 -192.985)"/>
  <rect id="Rectangle_5" data-name="Rectangle 5" class="i1-9" width="226.497" height="44.719" transform="translate(270.844 141.553)"/>
  <rect id="Rectangle_6" data-name="Rectangle 6" class="i1-9" width="226.497" height="44.719" transform="translate(270.844 70.893)"/>
  <rect id="Rectangle_7" data-name="Rectangle 7" class="i1-9" width="226.497" height="44.719" transform="translate(270.844)"/>
  <path id="Path_18" data-name="Path 18" class="i1-10" d="M540.23,230.365H757.07V195.3H540.23Z" transform="translate(-264.557 -190.475)"/>
  <path id="Path_19" data-name="Path 19" class="i1-10" d="M540.23,325.716H757.07V290.655H540.23Z" transform="translate(-264.557 -214.778)"/>
  <path id="Path_20" data-name="Path 20" class="i1-10" d="M540.23,420.337h216.84V385.276H540.23Z" transform="translate(-264.557 -238.894)"/>
  <circle id="Ellipse_6" data-name="Ellipse 6" class="i1-11" cx="13.357" cy="13.357" r="13.357" transform="translate(281.298 8.711)"/>
  <rect id="Rectangle_8" data-name="Rectangle 8" class="i1-11" width="131.833" height="2.904" transform="translate(326.597 16.842)"/>
  <rect id="Rectangle_9" data-name="Rectangle 9" class="i1-11" width="131.833" height="2.904" transform="translate(326.597 24.392)"/>
  <circle id="Ellipse_7" data-name="Ellipse 7" class="i1-12" cx="13.357" cy="13.357" r="13.357" transform="translate(281.298 80.185)"/>
  <rect id="Rectangle_10" data-name="Rectangle 10" class="i1-12" width="131.833" height="2.904" transform="translate(326.597 88.316)"/>
  <rect id="Rectangle_11" data-name="Rectangle 11" class="i1-12" width="131.833" height="2.904" transform="translate(326.597 95.866)"/>
  <circle id="Ellipse_8" data-name="Ellipse 8" class="i1-12" cx="13.357" cy="13.357" r="13.357" transform="translate(281.298 150.845)"/>
  <rect id="Rectangle_12" data-name="Rectangle 12" class="i1-12" width="131.833" height="2.904" transform="translate(326.597 158.976)"/>
  <rect id="Rectangle_13" data-name="Rectangle 13" class="i1-12" width="131.833" height="2.904" transform="translate(326.597 166.526)"/>
  <path id="Path_21" data-name="Path 21" class="i1-2" d="M309.528,360.08s-3.123,19.63,9.815,17.845c0,0,51.306-11.6,53.983-8.923s19.318,3.588,18.45-7.7c-.871-11.323-17.558-4.795-17.558-4.795s-25.876,3.569-31.23.892-20.522-1.785-20.522-1.785Z" transform="translate(-205.673 -231.085)"/>
  <path id="Path_22" data-name="Path 22" class="i1-13" d="M349.375,447.853l-4.242,40.25-2.872,27.248s-2.231,26.768-8.923,32.568c0,0,0,8.477-2.231,11.153l-3.123,35.245s4.461,12.938,4.015,15.169,1.785,9.369,1.338,10.261-21.415,0-21.415,0l4.461-71.828,13.83-99.935Z" transform="translate(-206.368 -254.843)"/>
  <path id="Path_23" data-name="Path 23" class="i1-14" d="M307.717,672.989s-9.356,23.594-4.475,26.442,56.138.814,56.138.814,8.543-5.288-1.22-8.95c0,0-8.136-.407-13.424-3.661s-11.39-9.356-11.39-9.356-.407-8.95-3.661-6.916a8.36,8.36,0,0,0-3.661,5.7Z" transform="translate(-203.796 -311.733)"/>
  <path id="Path_24" data-name="Path 24" class="i1-15" d="M288.161,668.632s-10.261,25.876-4.907,29,61.567.892,61.567.892,9.369-5.8-1.338-9.815c0,0-8.923-.446-14.723-4.015s-12.492-10.261-12.492-10.261-.446-9.815-4.015-7.584a9.169,9.169,0,0,0-4.015,6.246Z" transform="translate(-198.667 -310.575)"/>
  <path id="Path_25" data-name="Path 25" class="i1-16" d="M329.422,442.656s-4.908,45.952-7.138,55.767a126.891,126.891,0,0,0-2.677,19.63s-.446,14.276-4.461,18.292a12.059,12.059,0,0,0-3.569,8.923s-4.015,45.06-1.785,50.414,5.259,12.309,3.028,15.878-27.566,1.075-27.566-1.6,0-4.908-1.338-6.246,0-9.815,0-9.815-5.354-39.706-.446-51.306,7.138-43.275,7.138-43.275-3.569-36.137-8.03-41.937.892-26.322.892-26.322Z" transform="translate(-198.436 -250.562)"/>
  <path id="Path_26" data-name="Path 26" class="i1-2" d="M329.2,250.721a6,6,0,0,0,2.89,2.462c6.55,3.609,12.033,8.841,17.435,14.012a20.468,20.468,0,0,1,.812-13.842c.645-1.494,1.49-3.1,1.029-4.659a5.8,5.8,0,0,0-2.262-2.707,70.148,70.148,0,0,0-6.9-4.707c-1.671-1-5.1-3.66-7.022-3.37-.1,2.59-.153,4.906-1.287,7.326C333.622,245.811,329.394,251.173,329.2,250.721Z" transform="translate(-210.77 -201.329)"/>
  <circle id="Ellipse_9" data-name="Ellipse 9" class="i1-2" cx="18.292" cy="18.292" r="18.292" transform="translate(122.955 18.546)"/>
  <path id="Path_27" data-name="Path 27" class="i1-9" d="M338.761,285.2s3.123-15.615-5.8-20.968-19.184-11.6-19.184-11.6-3.123-.446-4.461,6.246c0,0-25.43,4.908-28.107,29s1.785,59.336,1.785,59.336-4.015,30.783-8.923,47.291c0,0-4.015,3.569,13.83-1.785s49.075,15.169,49.075,15.169,3.123-3.123,3.123-5.354,6.692-70.044,8.03-76.289S342.776,286.089,338.761,285.2Z" transform="translate(-196.622 -205.084)"/>
  <path id="Path_28" data-name="Path 28" class="i1-17" d="M347.243,230.349a7.627,7.627,0,0,1,3.587-.955,6.827,6.827,0,0,0,3.549-1.057c1.728-1.326,1.855-3.89,3.119-5.664,1.83-2.568,5.481-2.878,8.632-2.749,1.927.079,4,.194,5.626-.849,1.666-1.07,2.421-3.086,2.983-4.985.664-2.246,1.094-4.992-.552-6.657-1.143-1.156-2.948-1.385-4.218-2.4-.687-.55-9.773-2.757-18.3-4.742a17.827,17.827,0,0,0-20.792,11.285c-1.969,5.415-3.657,10.5-3.483,11.6.834,5.26,5.486,9.441,5.806,14.757a9.059,9.059,0,0,1,5.53-6.575,1.73,1.73,0,0,1,1.127-.137c.462.148.732.609,1.024,1,.764,1.016,3.165,2.557,4.526,1.837C346.621,233.412,345.712,231.388,347.243,230.349Z" transform="translate(-210.307 -191.627)"/>
  <path id="Path_29" data-name="Path 29" class="i1-18" d="M365.055,357.4a2.035,2.035,0,0,0-.042,2.863l12.862,13.313a2.03,2.03,0,0,0,2.892.028l39.249-39.079a2.03,2.03,0,0,0-.325-3.14l-15.433-10.052a2.018,2.018,0,0,0-2.526.249Z" transform="translate(-219.754 -222.513)"/>
  <path id="Path_30" data-name="Path 30" class="i1-19" d="M420.25,335.737a2.044,2.044,0,0,1-.269.331l-39.157,39.817a2.03,2.03,0,0,1-2.893-.028l-13.139-13.866a2.018,2.018,0,0,1-.24-.3,1.822,1.822,0,0,0,.425,2.333l12.862,13.313a2.03,2.03,0,0,0,2.892.028l39.249-39.079a2.031,2.031,0,0,0,.269-2.546Z" transform="translate(-219.718 -226.268)"/>
  <path id="Path_31" data-name="Path 31" class="i1-10" d="M417.35,333.154l-1.6-1.018a1.522,1.522,0,0,1-2.19,2l-10.336-7.106a1.521,1.521,0,0,1,.4-2.7l-.823-.525a.554.554,0,0,0-.692.078l-34.77,34.169a.554.554,0,0,0,.014.792l12.628,12.3a.554.554,0,0,0,.771-.011l36.686-37.119a.554.554,0,0,0-.093-.859Z" transform="translate(-220.453 -223.203)"/>
  <path id="Path_32" data-name="Path 32" class="i1-9" d="M210.391,162.841,221.057,172.9l25.37-25.066-12.876-8.38Z" transform="translate(-53.623 -35.542)"/>
  <path id="Path_33" data-name="Path 33" class="i1-18" d="M427.656,346.85a.378.378,0,0,0,.522,0l2.219-2.219a.37.37,0,0,0,0-.522.378.378,0,0,0-.522,0l-2.219,2.219A.37.37,0,0,0,427.656,346.85Z" transform="translate(-235.838 -228.375)"/>
  <path id="Path_34" data-name="Path 34" class="i1-18" d="M422.64,351.865a.37.37,0,0,0,.522,0l2.219-2.219a.369.369,0,0,0-.522-.522l-2.219,2.219A.37.37,0,0,0,422.64,351.865Z" transform="translate(-234.559 -229.652)"/>
  <circle id="Ellipse_10" data-name="Ellipse 10" class="i1-11" cx="2.492" cy="2.492" r="2.492" transform="translate(154.523 133.439)"/>
  <path id="Path_35" data-name="Path 35" class="i1-2" d="M292.052,350.76s-3.123,19.63,9.815,17.845c0,0,51.306-11.6,53.983-8.923s19.318,3.588,18.45-7.7c-.871-11.323-17.558-4.795-17.558-4.795s-25.876,3.569-31.23.892S304.99,346.3,304.99,346.3Z" transform="translate(-201.219 -228.71)"/>
  <path id="Path_36" data-name="Path 36" class="i1-20" d="M309.847,269.4s-20.076,2.231-20.076,31.23v37.029l24.538-10.261s10.261-24.091,9.369-30.783S323.231,270.288,309.847,269.4Z" transform="translate(-200.722 -209.359)"/>
</svg>
