<svg xmlns="http://www.w3.org/2000/svg" data-name="Layer 1" viewBox="0 0 1100 673.5513">
  <path fill="#f2f2f2" d="M516.36963 673.01709l-1.38623-1.44141c.27441-.26367 27.55469-26.97656 37.95117-76.89649 9.60156-46.09668 6.3584-121.99121-63.61523-221.76855-29.23682-41.68945-49.17481-81.07813-59.26026-117.0708-8.24072-29.40967-9.98535-56.74951-5.18554-81.25977 9.48876-48.45947 41.74072-69.73388 42.06542-69.94287l1.0835 1.68067c-.31787.20507-31.896 21.08007-41.19873 68.70849-10.67285 54.644 10.90479 120.83594 64.1333 196.73584 31.082 44.32129 51.77246 87.72071 61.49707 128.99414 7.79 33.06348 8.60156 64.84375 2.41211 94.459-10.5498 50.47655-38.21821 77.53417-38.49658 77.80175z"/>
  <circle cx="449.22826" cy="138.83504" r="77.41424" fill="#f2f2f2"/>
  <path fill="#f2f2f2" d="M467.48047 210.95556A105.47778 105.47778 0 11572.958 105.47753a105.59766 105.59766 0 01-105.47753 105.47803zm0-208.95556A103.47778 103.47778 0 10570.958 105.47753 103.595 103.595 0 00467.48047 2z"/>
  <circle cx="526.6425" cy="314.43319" r="64.19717" fill="#f2f2f2"/>
  <circle cx="493.91453" cy="537.23514" r="64.19717" fill="#f2f2f2"/>
  <path fill="#69c19c" d="M528.42116 113.99993h235v153h-235z"/>
  <path fill="#f2f2f2" d="M1076.98019 672.99992H859.33913s-4.41165-64.7041 21.69058-65.43937 23.16112 28.67568 55.88081-11.76438 72.42448-38.23424 77.57139-14.33784-9.92619 43.01352 17.64658 37.13133 67.27756 9.55856 44.8517 54.41026z"/>
  <path fill="#fff" d="M964.4858 673.01464l-.73455-.02943c1.71306-42.60065 10.63508-69.972 17.818-85.43179 7.799-16.78654 15.31438-23.58208 15.38941-23.64886l.48863.54948c-.074.06606-7.50173 6.79411-15.23826 23.467-7.14325 15.39445-16.01644 42.65344-17.72323 85.0936zM1043.25561 673.1026l-.70584-.20535a114.05749 114.05749 0 0128.71589-47.77521l.494.54427a113.28291 113.28291 0 00-28.50405 47.43629zM893.61858 673.05055l-.72845-.10125a80.08009 80.08009 0 00-7.20285-46.80693 64.44942 64.44942 0 00-11.36767-16.58782l.50874-.53063a65.2568 65.2568 0 0111.51809 16.79282 80.814 80.814 0 017.27214 47.23381z"/>
  <path fill="#5f5d76" d="M85.53786 672.78996l-.50195-1.03125c-.15284-.31347-15.188-31.74316-6.80518-62.73144 8.3833-30.98926 37.21289-50.55274 37.50293-50.7461l.95264-.63769.502 1.03125c.15283.31348 15.188 31.74316 6.80469 62.73144-8.38281 30.98926-37.2124 50.55274-37.50244 50.7461zm30.3418-112.16308c-5.04737 3.67187-28.398 21.8623-35.71827 48.92187-7.32568 27.08106 3.67432 54.54492 6.18311 60.25782 5.04736-3.67188 28.39795-21.86231 35.71777-48.92188 7.32618-27.08105-3.67382-54.54492-6.18261-60.25781z"/>
  <path fill="#69c19c" d="M46.77331 621.14549c8.38218 30.98558 37.093 50.17572 37.093 50.17572s15.12066-31.04739 6.73848-62.033-37.093-50.17573-37.093-50.17573-15.12066 31.04743-6.73848 62.03301z"/>
  <path fill="#5f5d76" d="M85.9905 672.35637l-1.14453-.0625c-.34864-.01855-35.12256-2.16211-58.12647-24.55469C3.71657 625.3466.63893 590.6425.61061 590.29387l-.09326-1.1416 1.14453.0625c.34864.01855 35.12256 2.16211 58.126 24.55469 23.00342 22.39355 26.08105 57.09668 26.10937 57.44531zM2.7322 591.30754c.75439 6.19531 5.29589 35.44531 25.38281 54.998 20.08691 19.55469 49.44678 23.30762 55.66064 23.89551-.75439-6.19629-5.2959-35.44434-25.3833-54.99805-20.10156-19.56929-49.44922-23.3105-55.66015-23.89546z"/>
  <path fill="#5f5d76" d="M110.71075 614.48636c-23.00082 22.39037-25.81021 56.80959-25.81021 56.80959s34.48233-1.88275 57.48315-24.27313 25.81021-56.80959 25.81021-56.80959-34.48232 1.88275-57.48315 24.27313zM297.71075 420.48636c-23.00082 22.39037-25.81021 56.80959-25.81021 56.80959s34.48233-1.88275 57.48315-24.27313 25.81021-56.80959 25.81021-56.80959-34.48232 1.88275-57.48315 24.27313z"/>
  <circle cx="84.42116" cy="538.99993" r="15" fill="#69c19c"/>
  <path fill="#5f5d76" d="M266.40261 672.01653l-1.38623-1.44141c.21777-.209 21.85546-21.4043 30.09667-61.00781 7.61133-36.57715 5.02637-96.80176-50.51074-175.99317-42.59424-60.73632-59.831-113.7998-51.231-157.71728 7.55468-38.582 33.24951-55.53076 33.5083-55.69727l1.08349 1.68067c-.25146.16259-25.27246 16.71191-32.6416 54.46338-8.46191 43.35156 8.66943 95.8789 50.91846 156.12207 24.70752 35.23144 41.15576 69.73339 48.88721 102.54687 6.19531 26.2959 6.84033 51.57324 1.917 75.12988-8.39401 40.16211-30.41988 61.70118-30.64156 61.91407z"/>
  <ellipse cx="256.42116" cy="239.11957" fill="#69c19c" rx="180" ry="30.88036"/>
  <path fill="#5f5d76" d="M222.92116 260.99992c-124.76611 0-222.5-17.13085-222.5-39s97.73389-39 222.5-39 222.5 17.13086 222.5 39-97.73389 39-222.5 39zm0-76c-119.52344 0-220.5 16.94385-220.5 37s100.97656 37 220.5 37 220.5-16.94384 220.5-37-100.97656-37-220.5-37z"/>
  <path fill="#3f3f43" d="M273.48178 70.44414s-26.67363-7.5137-34.563 28.92774-1.87843 54.85-1.87843 54.85l59.54606-6.95017s16.90581-65.74487-23.10463-76.82757z"/>
  <path fill="#a0616a" d="M233.57483 228.27986s-39.12584 3.89677-32.157 19.69271 6.96879 17.18971 6.96879 17.18971L242.766 326.4877l11.15008-11.61466s-12.54384-27.41061-12.54384-36.23775-13.00842-24.1585-13.00842-24.1585l22.76474-1.85835zM340.79376 247.0434l13.00842 28.33978s9.75632 9.75632 20.44181 48.78159 13.00843 37.63153 13.00843 37.63153l-16.26053 3.25211s-18.11888-42.27738-24.15851-45.52948-13.473-32.98565-13.473-32.98565l-21.371-26.946 6.50421-14.40219z"/>
  <path fill="#3f3f43" d="M324.99782 214.5223l19.97718 37.167s-25.08768-11.61467-28.80437 13.93759l-22.76474-17.65429s-31.59189 10.22088-50.63989 6.50419c0 0 5.575-17.65429-14.40218-25.55227l45.06489-5.575-1.85834-9.75631 4.64586-9.29174zM245.55351 318.12515s-12.54384-1.85835-9.29173 9.29173l6.50421 22.30015s-8.36256 22.76475 4.64587 17.65429 21.371-36.70234 21.371-36.70234 5.575-24.1585 0-24.1585-23.22933-3.71669-21.371 0-1.85835 11.61467-1.85835 11.61467zM385.85866 355.29207s-16.26053-4.18128-19.97723 2.32294-2.78752 27.87519-2.78752 28.33978 5.575 5.11045 7.43339 5.11045 13.473 20.9064 29.26895 13.473-13.93759-49.24617-13.93759-49.24617z"/>
  <circle cx="268.78284" cy="109.06119" r="18.11888" fill="#a0616a"/>
  <path fill="#a0616a" d="M283.64961 112.77788s3.71669 19.51263 6.9688 22.30015-24.62309 6.9688-24.62309 6.9688 4.18128-13.473-.92917-20.44181 18.58346-8.82714 18.58346-8.82714z"/>
  <path fill="#d0cde1" d="M332.4312 223.34948c-3.16386 0-11.21978-1.31013-20.25137-2.99658-7.81426-1.45881-16.36738-3.19171-23.11318-4.59477-7.22429-1.50526-12.38584-2.62955-12.38584-2.62955s-1.85835 11.61466-7.898 10.2209c-5.20335-1.19864-20.75305-55.51344-24.95758-70.52423a5.22182 5.22182 0 012.309-5.86773l21.357-13.041 5.47285 2.09064s9.24528-7.14535 14.61122-7.28937 14.65773-1.53778 14.65773-1.53778 10.68549.92918 12.54384 8.82715 2.78752 57.14415 9.75632 65.97129 16.72516 21.37103 7.89801 21.37103z"/>
  <path fill="#a0616a" d="M267.38908 249.3663s0 18.11888 12.07925 15.33136.92917-19.51264.92917-19.51264z"/>
  <path fill="#a0616a" d="M300.83931 251.22468s-4.18128 21.371-13.00842 18.11888 0-22.30016 0-22.30016z"/>
  <path d="M320.352 200.58474s-4.54832 10.85274-8.17212 19.76816c-7.81426-1.45881-16.36738-3.19171-23.11318-4.59477a13.30244 13.30244 0 012.01634-3.55872c3.25211-3.7167 1.39376-4.64587 1.39376-4.64587-2.78751-5.575-.46458-13.00842-.46458-13.00842-5.575-14.86677 2.78752-33.45024 2.78752-33.45024z" opacity=".15"/>
  <path fill="#d0cde1" d="M296.19345 161.09488s-8.36256 18.58347-2.78752 33.45024c0 0-2.32294 7.43338.46458 13.00842 0 0 1.85835.92917-1.39376 4.64587s-6.03962 16.72511-3.71669 19.51263-3.2521 7.898-1.85834 10.68549-2.32294 6.50422-2.32294 6.50422 13.9376 2.78752 16.26053 6.96879c0 0 2.78752-3.2521 1.39376-6.96879s-.46458-5.11046.92918-7.43339 5.575-7.43338 6.03962-9.75632 12.54384-31.1273 12.54384-31.1273l-5.66494-52.49178z"/>
  <path fill="#d0cde1" d="M247.87644 148.08646l-.868.15781a5.22217 5.22217 0 00-4.29024 5.1766c.03308 4.66459.29588 12.94276 1.44152 24.39913 1.85835 18.58346 8.36256 46.45866 9.75632 49.24618a148.29815 148.29815 0 007.43338 14.40218c4.18128 6.9688 5.11046 4.64587 4.18128 7.898a4.89284 4.89284 0 001.39376 5.11046s8.36256-9.29174 16.72512-4.18128a10.35217 10.35217 0 00.92917-4.18128c0-2.32294 1.39376-4.64587-.92917-6.03963s1.39376-7.43338-2.32293-10.68549-4.18128-2.78752-3.7167-6.03963a13.83913 13.83913 0 00-.92917-6.50421z"/>
  <path fill="#3f3f43" d="M275.55674 85.78636s-7.5137 19.9113-25.92226 28.17636L246.629 96.30553z"/>
  <ellipse cx="286.43713" cy="102.09239" fill="#a0616a" rx="2.55523" ry="4.87816"/>
  <circle cx="811.81316" cy="326.40599" r="32.45446" fill="#3f3f43"/>
  <circle cx="807.47835" cy="283.78032" r="10.78039" fill="#3f3f43"/>
  <path fill="#3f3f43" d="M795.34737 290.45673a10.7812 10.7812 0 01.92132-14.42975q-.45189.29079-.8826.63121a10.78039445 10.78039445 0 1013.41081 16.88247q.42976-.34138.81452-.71691a10.78117 10.78117 0 01-14.26405-2.36702z"/>
  <path fill="#ffb9b9" d="M758.655 443.7703l-18.78419 15.89432s-28.17629 8.66963-14.44938 18.06172 21.67407-11.5595 21.67407-11.5595l23.119-14.44938z"/>
  <path fill="#3f3f43" d="M799.11331 374.4133l-2.16741-1.44494s-8.66963 0-10.11457 8.66963-5.77975 26.73135-5.77975 26.73135-14.44938 8.66963-13.00444 24.56394l-15.17185 13.00445s18.06173 5.77975 14.44938 10.837l26.73133-24.5639.72247-46.96049z"/>
  <circle cx="807.78293" cy="339.01233" r="18.78419" fill="#ffb9b9"/>
  <path fill="#ffb9b9" d="M802.00318 352.01677s11.55951 13.00444 4.33482 20.22913-9.3921 42.62567-9.3921 42.62567l31.78864-48.40542s-8.66963-17.33926-7.94716-23.119z"/>
  <path fill="#3f3f43" d="M799.83578 402.5896s17.33925-38.08367 26.73135-40.7159l24.56394 6.03738s-19.50666 67.18962-17.33925 73.69184 14.44938 15.89432 10.11456 72.96937c0 0 55.63012 101.86813 41.90321 119.20739s-65.02221 30.34369-65.74468 25.28641-23.84148-83.08393-20.22913-106.92541c0 0 0 103.31307-4.33482 105.48047s-73.69184 18.06173-71.52443 5.77975 36.84592-147.38367 36.84592-147.38367l26.73135-83.8064.72247-12.282s-11.5595-7.94716-2.88987-26.00888 11.5595-20.9516 11.5595-20.9516l10.4084-1.954s-9.68593 26.51795-7.51852 31.57525z"/>
  <path fill="#ffb9b9" d="M838.8491 456.77477l-8.66963 18.7842s-22.39654 23.84147-6.50222 24.56394 17.33926-21.67407 17.33926-21.67407l11.5595-21.67407z"/>
  <path fill="#3f3f43" d="M841.739 368.63355h9.39209s2.88988-4.33481 5.77976 13.72691 1.44493 45.51555 1.44493 45.51555l-4.33478 36.12345s-15.17185-5.77975-18.78419-4.33481 0-.72247 0-.72247l6.50222-24.564-7.94716-35.401zM805.88156 311.31478c-12.26952 3.33372-20.63946 11.8383-18.69479 18.99551.87013 3.20245 3.66467 5.586 7.57924 6.95045l3.43483-4.26089.156 5.17072c.54335.09252 1.09492.17509 1.66322.2355l4.36381-9.19 2.48809 9.15725a38.64777 38.64777 0 006.05185-1.14c12.26952-3.33371 20.63946-11.8383 18.69479-18.99551s-13.46753-10.25675-25.73704-6.92303z"/>
  <ellipse cx="826.92836" cy="335.03875" fill="#ffb9b9" rx="2.16741" ry="3.61234"/>
  <ellipse cx="753.42116" cy="665.49993" fill="#3f3f43" rx="17" ry="7.5"/>
  <ellipse cx="906.03022" cy="773.57358" fill="#3f3f43" rx="22.79462" ry="10" transform="rotate(-21.513 575.43877822 885.2943022)"/>
  <path fill="#5f5d76" d="M730.89479 468.2675c-.29785-.07324-29.95507-7.62207-41.24023-37.60547-12.86328-34.17431 2.25976-82.36621 44.94824-143.23632 52.13965-74.34717 54.9707-99.32813 48.165-107.19287-8.60937-9.94825-35.625 3.52246-35.89551 3.65966l-.90234-1.78515c1.167-.58985 28.68164-14.30616 38.30859-3.18457 10.5791 12.22168-5.584 49.11328-48.03906 109.65136-23.13184 32.98487-38.25195 62.59229-44.93848 87.99952-5.42187 20.59814-5.34961 38.54834.21387 53.354 10.89648 28.99609 39.56641 36.32617 39.85449 36.39648z"/>
  <path fill="#5f5d76" d="M747.42116 242.99992h-251v-164h251zm-249-2h247v-160h-247z"/>
  <circle cx="600.95401" cy="172.21891" r="10.53285" fill="#5f5d76"/>
  <circle cx="690.88831" cy="172.21891" r="10.53285" fill="#5f5d76"/>
  <path fill="#5f5d76" d="M690.88831 215.16051c0 3.1323-20.31385 12.15328-45.37226 12.15328s-45.37226-9.021-45.37226-12.15328 20.31385.81022 45.37226.81022 45.37226-3.94252 45.37226-.81022zM0 671.5513h1100v2H0z"/>
</svg>
